<svg version="1.1" id="sunny_icon" xmlns="http://www.w3.org/2000/svg" xmlns:xlink="http://www.w3.org/1999/xlink" x="0px" y="0px" style="enable-background:new 0 0 96.8 96.7;" xml:space="preserve">

    <!-- Colors -->
    <style type="text/css">
        .st0{fill:#F7DFAD;}
        .st1{fill:#F3BD3D;}
    </style>

    <!-- Sun square on back -->
    <rect x="31.2" y="29.8" class="st0" width="34.6" height="34.6"/>

    <!-- Sun square on front -->
    <rect x="31.2" y="29.8" id="sunny_square" transform="matrix(0.7071 0.7071 -0.7071 0.7071 47.5096 -20.4497)" class="st1" width="34.6" height="34.6"/>

    <!-- Begin Rays -->
    <!-- + -->
    <path class="st1 sunny_ray" d="M48.4,13.7L48.4,13.7c-0.9,0-1.6-0.7-1.6-1.6V1.7c0-0.9,0.7-1.6,1.6-1.6h0c0.9,0,1.6,0.7,1.6,1.6v10.4
                         C50,13,49.3,13.7,48.4,13.7z"/>

    <!-- + -->
    <path class="st1 sunny_ray" d="M48.4,96.7L48.4,96.7c-0.9,0-1.6-0.7-1.6-1.6V84.6c0-0.9,0.7-1.6,1.6-1.6h0c0.9,0,1.6,0.7,1.6,1.6v10.4
                         C50,95.9,49.3,96.7,48.4,96.7z"/>

    <!-- + -->
    <path class="st1 sunny_ray" d="M83.1,47.7L83.1,47.7c0-0.9,0.7-1.6,1.6-1.6h10.4c0.9,0,1.6,0.7,1.6,1.6v0c0,0.9-0.7,1.6-1.6,1.6H84.7
                         C83.8,49.3,83.1,48.6,83.1,47.7z"/>

    <!-- + -->
    <path class="st1 sunny_ray" d="M0.1,47.7L0.1,47.7c0-0.9,0.7-1.6,1.6-1.6h10.4c0.9,0,1.6,0.7,1.6,1.6v0c0,0.9-0.7,1.6-1.6,1.6H1.8
                         C0.9,49.3,0.1,48.6,0.1,47.7z"/>

    <!-- x -->
    <path class="st1 sunny_ray" d="M72.9,72.3L72.9,72.3c0.6-0.6,1.6-0.6,2.3,0l7.4,7.4c0.6,0.6,0.6,1.6,0,2.3l0,0c-0.6,0.6-1.6,0.6-2.3,0
                         l-7.4-7.4C72.3,74,72.3,73,72.9,72.3z"/>

    <!-- x -->
    <path class="st1 sunny_ray" d="M14.3,13.7L14.3,13.7c0.6-0.6,1.6-0.6,2.3,0l7.4,7.4c0.6,0.6,0.6,1.6,0,2.3l0,0c-0.6,0.6-1.6,0.6-2.3,0L14.3,16
                         C13.7,15.3,13.7,14.3,14.3,13.7z"/>

    <!-- x -->
    <path class="st1 sunny_ray" d="M72.9,24.8L72.9,24.8c-0.6-0.6-0.6-1.6,0-2.3l7.4-7.4c0.6-0.6,1.6-0.6,2.3,0v0c0.6,0.6,0.6,1.6,0,2.3l-7.4,7.4
                         C74.6,25.5,73.6,25.5,72.9,24.8z"/>

    <!-- x -->
    <path class="st1 sunny_ray" d="M14.3,83.5L14.3,83.5c-0.6-0.6-0.6-1.6,0-2.3l7.4-7.4c0.6-0.6,1.6-0.6,2.3,0h0c0.6,0.6,0.6,1.6,0,2.3l-7.4,7.4
                         C15.9,84.1,14.9,84.1,14.3,83.5z"/>
    <!-- End Rays -->

</svg>
