<svg version="1.1" id="rain_icon" xmlns="http://www.w3.org/2000/svg" xmlns:xlink="http://www.w3.org/1999/xlink" x="0px" y="0px" viewBox="0 0 92.614 94.781" style="enable-background:new 0 0 94.2 101.8;" xml:space="preserve">

    <style type="text/css">
        .rn0{fill:#C5C5C4;}
        .rn1{fill:#E4E4E4;}
        .rn2{fill:#828ECE;}
    </style>

            <!-- Big Pyramid -->
            <polyline id="XMLID_205_" class="rn0" points="1,66.3 40.9,5.9 80.4,66"/>

            <!-- Small Pyramid -->
            <polyline id="XMLID_204_" class="rn1" points="48.7,66.1 71.3,32 93.6,66"/>

    <!-- Top Drop -->
    <g id="XMLID_167_">
        <path class="rn2" d="M53.5,76c0,2.6-2.1,4.8-4.8,4.8c-2.6,0-4.8-2.1-4.8-4.8c0-0.9,0.3-1.8,0.8-2.6c0.8-1.3,2.3-2.2,4-2.2
                             C51.4,71.2,53.5,73.3,53.5,76z"/>
        <polygon class="rn2" points="48.7,69 45,72.9 52.4,72.9 	"/>
    </g>

    <!-- Left Drop -->
    <g id="XMLID_166_">
        <path class="rn2" d="M37.4,84.7c0,2.6-2.1,4.8-4.8,4.8s-4.8-2.1-4.8-4.8c0-0.9,0.3-1.8,0.8-2.6c0.8-1.3,2.3-2.2,4-2.2C35.2,79.9,37.4,82.1,37.4,84.7z"/>
        <polygon class="rn2" points="32.6,77.7 28.9,81.7 36.3,81.7"/>
    </g>

    <!-- Right Drop -->
    <g id="XMLID_165_">
        <path class="rn2" d="M69.6,84.7c0,2.6-2.1,4.8-4.8,4.8c-2.6,0-4.8-2.1-4.8-4.8c0-0.9,0.3-1.8,0.8-2.6c0.8-1.3,2.3-2.2,4-2.2C67.5,79.9,69.6,82.1,69.6,84.7z"/>
        <polygon class="rn2" points="64.9,77.7 61.2,81.7 68.5,81.7"/>
    </g>

    <!-- Bottom Drop -->
    <g id="XMLID_163_">
        <path class="rn2" d="M53.5,95.9c0,2.6-2.1,4.8-4.8,4.8S44,98.5,44,95.9c0-0.9,0.3-1.8,0.8-2.6c0.8-1.3,2.3-2.2,4-2.2C51.4,91.1,53.5,93.2,53.5,95.9z"/>
        <polygon id="XMLID_164_" class="rn2" points="48.7,88.9 45,92.8 52.4,92.8"/>
    </g>

</svg>
